<svg width="498" height="161" viewBox="0 0 498 161" fill="none" xmlns="http://www.w3.org/2000/svg">
<path d="M479.124 8.78304C471.386 22.9695 461.718 36.0166 450.149 47.2826C428.458 68.3895 399.811 82.8754 369.523 85.8863C367.126 86.1338 364.862 85.9417 362.497 86.0539C360.471 86.1309 358.478 86.2752 356.452 86.4197C352.434 86.7422 348.416 87.1999 344.399 87.8264C343.42 87.9997 342.441 88.1394 341.428 88.3467C342.054 84.7302 342.645 81.08 343.202 77.43C344.254 78.5396 345.441 79.5135 346.763 80.3517C348.287 81.3241 349.946 82.0594 351.705 82.5578C358.436 84.4517 365.487 82.4602 370.94 78.281C373.465 76.3442 375.583 74.1055 377.362 71.6994C382.566 64.6844 385.397 55.9242 385.863 47.2426C386.174 41.331 385.368 35.0868 383.012 29.6266C381.133 25.2111 378.345 21.3064 374.212 18.7251C368.927 15.4737 362.607 14.895 356.807 17.0833C349.725 19.7841 343.739 25.6882 340.358 32.357C337.413 38.1795 334.935 42.8854 330.702 47.937C330.5 48.1744 330.298 48.4117 330.13 48.6151C330.058 47.6023 329.952 46.5896 329.846 45.6107C329.11 39.839 327.328 34.2411 324.635 29.0526C323.305 26.4583 321.706 24.0003 319.905 21.6784C314.637 14.8469 306.268 9.31326 297.286 10.1654C288.236 11.0178 281.277 18.2098 278.072 26.33C276.903 29.3074 276.208 32.3164 275.816 35.2901C275.751 35.7295 275.719 36.1687 275.653 36.608C274.737 35.7342 273.787 34.8943 272.804 34.0883C270.803 32.4427 268.601 30.9669 266.196 29.6947C263.792 28.4225 261.152 27.3878 258.311 26.7255C256.891 26.3943 255.404 26.1986 253.883 26.1043C245.064 25.571 237.625 31.2792 234.046 39.0297C232.809 41.7372 232.044 44.5101 231.652 47.3825C231.456 48.8356 231.396 50.3219 231.436 51.8077C231.475 52.8882 231.548 53.9686 231.654 55.0151C231.315 54.814 230.942 54.5793 230.57 54.3784C229.384 53.7085 228.199 53.106 226.879 52.5718C225.526 52.0039 224.105 51.5715 222.651 51.2405C219.742 50.5785 216.566 50.4581 213.326 51.1148C211.706 51.4262 210.087 51.9741 208.571 52.7241C202.942 55.5195 198.845 60.8407 197.049 66.8268C193.589 78.4267 198.377 90.9341 205.21 100.291C206.672 102.311 208.302 104.228 210.067 106.01L210.101 106.044C207.701 105.616 205.3 105.053 202.898 104.388C201.951 104.123 200.97 103.823 200.023 103.524L197.012 102.558C196.47 102.392 195.929 102.192 195.253 102.026C195.016 101.959 194.813 101.893 194.509 101.827C194.065 100.984 193.622 100.108 193.179 99.2662C191.1 95.3582 188.887 91.4509 186.437 87.6797C180.176 77.9147 172.063 69.4079 162.137 63.341C160.172 62.1343 158.14 61.0292 156.074 59.9919C151.944 57.9509 147.646 56.2821 143.248 55.0192C134.487 52.4255 125.394 51.2518 116.408 51.1921C107.388 51.1325 98.4412 52.1871 89.7346 54.1187C81.0281 56.084 72.5286 58.9603 64.4384 62.7127C60.3934 64.5889 56.4509 66.7348 52.6445 69.0827C48.872 71.4643 45.2358 74.0816 41.8033 76.9344C35.0398 82.6732 28.956 89.287 23.7871 96.5044C18.6182 103.722 14.3642 111.543 11.0576 119.697C7.75105 127.852 5.32448 136.374 3.77667 144.993C2.26279 153.646 1.62768 162.396 1.87087 171.142C2.1139 179.854 3.23522 188.562 5.19996 197.03C6.19915 201.247 7.36708 205.429 8.73753 209.577C10.1078 213.69 11.6467 217.736 13.3206 221.747C11.8491 217.667 10.5126 213.553 9.37858 209.405C8.21081 205.256 7.24541 201.039 6.44891 196.821C4.88953 188.352 4.17404 179.743 4.30338 171.198C4.5619 154.074 8.19879 137.002 15.1537 121.536C16.0231 119.607 16.9602 117.711 17.931 115.816C20.9116 110.196 24.2647 104.81 28.1264 99.7941C33.264 93.1171 39.2153 87.0781 45.8465 81.9477C49.1451 79.3657 52.6137 77.0194 56.2185 74.9088C59.8233 72.7982 63.5644 70.9234 67.4416 69.2844C75.1622 65.9727 83.2245 63.5038 91.4597 61.9121C99.6612 60.3206 108.036 59.5726 116.347 59.8381C124.625 60.1037 132.873 61.4164 140.621 63.9472C155.879 68.9087 169.306 79.6537 177.68 93.3265C179.212 95.8185 180.642 98.4124 182.039 101.006C182.006 101.007 181.972 101.007 181.938 101.007C180.554 101.115 179.102 101.324 177.483 101.804C176.066 102.216 174.515 102.899 173.067 103.919C173.033 103.919 173.034 103.953 173 103.953C165.455 108.783 162.559 117.983 162.936 126.559C163.05 129.159 163.433 131.657 163.985 134.086C164.122 134.693 164.294 135.3 164.432 135.873L164.466 135.975L164.501 136.11L164.603 136.413C164.672 136.615 164.74 136.818 164.809 137.02C164.946 137.425 165.117 137.829 165.287 138.2C165.97 139.75 166.855 141.165 167.942 142.409C170.081 144.898 172.826 146.743 176.006 147.775C177.597 148.275 179.287 148.571 181.01 148.529C182.732 148.521 184.488 148.209 186.14 147.593C187.793 147.012 189.309 146.126 190.587 145.074C191.9 144.021 192.976 142.834 193.848 141.614C194.083 141.309 194.285 141.004 194.486 140.699C194.586 140.53 194.687 140.394 194.788 140.225L194.922 139.988L195.056 139.784C195.391 139.242 195.693 138.667 195.96 138.125C196.529 137.008 197.065 135.857 197.532 134.707C198.467 132.372 199.2 130.005 199.729 127.537C200.258 125.069 200.55 122.535 200.538 119.935C200.534 119.023 200.496 118.077 200.39 117.132C204.449 118.329 208.71 119.255 213.07 119.708C217.801 120.226 222.733 120.203 227.628 119.404C235.324 118.119 244.162 115.443 249.2 109.105C251.182 106.596 252.554 103.821 253.419 100.98C253.652 100.27 253.818 99.5595 253.984 98.8495C254.05 98.5115 254.149 98.1058 254.215 97.7678C254.281 97.4297 254.347 97.0917 254.379 96.7538C254.576 95.402 254.705 94.0505 254.766 92.7331C254.798 92.2939 254.796 91.8549 254.794 91.4159C255.403 91.6832 256.046 91.9504 256.689 92.1839C258.043 92.6842 259.463 93.1166 260.917 93.4139C263.859 94.0419 266.934 94.129 269.938 93.7098C270.749 93.6047 271.592 93.432 272.402 93.2594C280.298 91.3653 286.224 87.0826 289.296 79.4358C289.864 78.0147 290.331 76.6279 290.73 75.2414C290.763 75.0723 290.829 74.9032 290.862 74.7342C291.778 75.4054 292.727 76.0764 293.776 76.6457C296.825 78.354 300.174 79.3854 303.587 79.7411C310.043 80.4204 316.181 78.1968 321.536 74.6934C324.129 72.9928 326.451 70.9895 328.806 68.986C330.286 67.7296 335.372 64.4639 335.667 62.5037C334.292 71.865 333.221 81.2925 331.609 90.6211C327.931 91.6513 324.255 92.9517 320.716 94.5554C316.906 96.3292 313.167 98.4742 309.768 101.394C308.086 102.854 306.506 104.483 305.13 106.38C303.753 108.278 302.615 110.445 301.883 112.846C301.184 115.247 300.927 117.984 301.514 120.683C302.067 123.382 303.531 126.01 305.736 127.924C306.821 128.865 308.075 129.636 309.429 130.17C310.748 130.704 312.169 131.035 313.554 131.13C314.94 131.225 316.291 131.151 317.607 130.909C318.89 130.667 320.138 130.289 321.318 129.777C323.711 128.753 325.833 127.223 327.548 125.527C329.262 123.796 330.639 121.899 331.812 120.002C334.125 116.141 335.661 112.149 336.926 108.158C338.258 103.93 339.285 99.7041 340.144 95.4786C341.932 95.0651 343.755 94.6851 345.578 94.339C349.392 93.6459 353.206 93.0878 357.089 92.6984C364.281 91.9558 371.577 91.8207 378.699 90.4031C386.158 88.9501 393.478 86.8223 400.56 84.1215C414.79 78.6858 428.098 70.8903 439.911 61.2443C443.343 58.459 446.64 55.5056 449.768 52.4178C473.711 28.9365 489.376 -2.34177 496.217 -35.1664C492.369 -19.8835 486.661 -5.03099 479.124 8.78304ZM189.39 119.817C189.364 121.54 189.102 123.297 188.705 125.089C188.307 126.847 187.707 128.606 187.006 130.298C186.638 131.144 186.237 131.956 185.835 132.735C185.634 133.141 185.399 133.514 185.164 133.886L185.064 134.022L184.997 134.123C184.963 134.191 184.896 134.259 184.862 134.327C184.762 134.462 184.661 134.598 184.56 134.733C183.788 135.75 182.946 136.328 182.17 136.568C181.766 136.705 181.394 136.741 180.955 136.743C180.516 136.745 180.042 136.645 179.569 136.479C178.621 136.145 177.672 135.474 176.993 134.667C176.653 134.263 176.415 133.825 176.244 133.387C176.21 133.286 176.175 133.185 176.141 133.05C176.141 132.982 176.107 132.949 176.106 132.881L176.072 132.814L176.072 132.78L176.038 132.679C175.935 132.24 175.797 131.768 175.728 131.329C174.968 127.719 174.816 124.14 175.511 121.03C175.842 119.475 176.41 118.088 177.147 116.936C177.516 116.36 177.919 115.852 178.323 115.411C178.76 114.97 179.197 114.63 179.635 114.358L179.568 114.392L180.174 114.017C180.275 113.949 180.511 113.813 180.95 113.71C181.388 113.573 182.03 113.502 182.806 113.431C184.394 113.322 186.184 113.415 188.077 113.643C188.145 113.643 188.179 113.643 188.246 113.676L188.315 113.845L188.383 114.013L188.417 114.114C188.486 114.283 188.554 114.418 188.588 114.586L188.691 114.822L188.76 115.092C189.239 116.475 189.416 118.129 189.39 119.817ZM292.252 31.9381C292.552 31.1262 292.954 30.3476 293.356 29.6027C293.725 28.9593 294.127 28.3833 294.598 27.8408C295.539 26.7557 296.65 25.9738 297.627 25.564C298.133 25.359 298.572 25.2557 299.011 25.2199C299.45 25.1841 299.991 25.2153 300.565 25.3478C301.14 25.4802 301.783 25.6799 302.393 25.981C302.697 26.1147 303.002 26.2821 303.307 26.4833C303.612 26.6846 303.951 26.8856 304.256 27.1206C305.544 28.0603 306.834 29.4052 308.091 30.9867C309.348 32.5682 310.437 34.2855 311.391 36.071C313.3 39.6758 314.568 43.6213 315.127 47.6377C315.197 48.1439 315.267 48.6502 315.303 49.1566L315.374 49.8993L315.411 50.6421C315.447 51.1485 315.45 51.6551 315.452 52.1279C315.454 52.6007 315.423 53.1074 315.425 53.5802C315.332 55.4719 315.003 57.2971 314.436 58.8871C313.903 60.4768 313.166 61.7974 312.292 62.7471C311.855 63.2219 311.384 63.6631 310.879 63.9694C310.374 64.3095 309.834 64.5821 309.193 64.7877C307.946 65.2326 306.46 65.4083 304.973 65.2463C303.486 65.1181 301.964 64.6524 300.71 63.9489C300.101 63.614 299.457 63.178 298.813 62.6406C298.202 62.1368 297.591 61.5318 297.014 60.859C295.859 59.5472 294.838 57.9309 293.986 56.2124C293.543 55.3364 293.167 54.4263 292.791 53.4486C292.483 52.5382 292.174 51.594 291.899 50.5821C291.59 49.5028 291.315 48.3558 291.005 47.209C290.864 45.8925 290.757 44.6097 290.683 43.3604C290.529 39.1734 290.983 35.2199 292.252 31.9381ZM246.864 49.4735C247.06 48.1217 247.459 46.7352 247.994 45.5507C248.563 44.366 249.267 43.3496 249.974 42.7384C250.68 42.0935 251.287 41.7867 251.928 41.6486C252.266 41.5795 252.637 41.544 253.043 41.5759C253.651 41.6069 254.293 41.7052 254.936 41.8711C256.255 42.169 257.642 42.7029 258.997 43.4396C261.74 44.9129 264.453 47.1631 266.762 49.7529C267.917 51.0647 268.97 52.4444 269.889 53.8924C270.365 54.6332 270.842 55.4415 271.285 56.25C271.728 57.0585 272.137 57.8334 272.512 58.6422C274.013 61.8436 275.008 65.1487 275.157 68.0862C275.231 69.5381 275.103 70.9233 274.804 72.1067C274.506 73.2901 273.97 74.4071 273.332 75.2881C272.695 76.1692 272.022 76.7802 271.045 77.3251C270.236 77.8016 269.258 78.1439 268.212 78.3176C267.942 78.3526 267.638 78.354 267.334 78.3554C265.78 78.3964 264.123 78.1339 262.533 77.6347C261.722 77.402 260.943 77.0679 260.198 76.6999C259.826 76.499 259.453 76.298 259.114 76.097C258.742 75.8961 258.437 75.6611 258.064 75.3926C257.013 74.6545 256.03 73.8147 255.113 72.8396C255.011 72.705 254.875 72.6043 254.774 72.4697C254.23 71.8643 253.721 71.225 253.211 70.5519C251.307 67.9602 249.705 64.8606 248.338 61.4559C248.166 60.815 248.028 60.1402 247.856 59.4993C247.408 57.5764 247.062 55.7543 246.851 53.9991C246.745 53.1215 246.674 52.2775 246.67 51.467C246.735 50.7912 246.765 50.1494 246.864 49.4735ZM210.59 72.9444L210.655 72.4375L210.754 71.9305C210.82 71.6262 210.886 71.322 210.986 71.0176C211.152 70.4089 211.386 69.7999 211.688 69.2582C212.257 68.141 212.995 67.1582 213.803 66.4452C214.207 66.1057 214.611 65.8336 215.015 65.5953C215.419 65.3908 215.824 65.2539 216.33 65.1502C217.275 64.9432 218.491 64.9376 219.742 65.2019C220.385 65.3341 221.028 65.5337 221.637 65.7673C222.314 66.0343 223.025 66.3688 223.736 66.7708C225.125 67.5411 226.514 68.514 227.837 69.6224C230.482 71.8729 232.86 74.6988 234.8 77.7631C235.786 79.3121 236.638 80.8954 237.389 82.513C238.072 84.0971 238.654 85.7155 239.033 87.3686C239.412 89.0217 239.656 90.6754 239.698 92.3301C239.699 92.5327 239.7 92.7353 239.701 92.9717C239.669 93.4785 239.604 93.9854 239.539 94.4922L239.44 95.0668C239.407 95.2696 239.374 95.4049 239.341 95.5739C239.275 95.9119 239.175 96.2163 239.109 96.5206C238.743 97.7718 238.141 98.9229 237.503 99.7702C237.167 100.177 236.831 100.55 236.494 100.822C236.157 101.094 235.821 101.298 235.416 101.502C234.607 101.844 233.527 102.085 232.345 102.057C231.162 102.029 229.945 101.764 228.625 101.263C227.305 100.763 225.95 99.9925 224.595 99.0194C223.239 98.0463 221.882 96.8705 220.627 95.6605C219.371 94.4168 218.182 93.0714 217.129 91.6578C212.88 86.0037 209.94 78.4861 210.59 72.9444ZM357.077 31.773C358.456 30.4495 359.972 29.4293 361.422 28.8485C362.13 28.575 362.838 28.3691 363.48 28.2986C364.121 28.2281 364.763 28.2251 365.372 28.3574C366.589 28.5882 367.74 29.157 368.894 30.2323C370.013 31.2741 371.034 32.7891 371.819 34.5417C372.604 36.2942 373.187 38.2503 373.535 40.3088C375.168 50.1965 372.153 62.8076 364.007 69.2958C362.527 70.4847 360.909 71.3703 359.324 71.8167C357.738 72.2631 356.184 72.304 354.73 71.9055C353.309 71.5068 352.056 70.7696 350.969 69.5926C349.883 68.4156 348.963 66.7988 348.347 64.9442C347.73 63.0895 347.349 61.0312 347.238 58.904C347.127 56.9795 347.219 54.9528 347.48 52.959C347.712 51.8097 347.977 50.6939 348.242 49.5782C349.733 43.2897 352.133 36.4227 357.077 31.773ZM324.292 115.613C323.455 117.103 322.481 118.458 321.439 119.544C320.363 120.663 319.219 121.513 317.971 122.059C317.365 122.332 316.69 122.571 316.015 122.71C315.374 122.848 314.732 122.884 314.124 122.853C312.941 122.791 311.892 122.391 311.078 121.719C310.265 121.048 309.652 120.071 309.376 118.89C309.067 117.71 309.128 116.358 309.493 114.972C309.858 113.586 310.561 112.164 311.467 110.843C312.373 109.488 313.516 108.233 314.794 107.045C317.384 104.703 320.483 102.729 323.82 101.093C325.842 100.104 327.932 99.2164 330.091 98.4296C329.561 100.83 328.998 103.23 328.3 105.53C327.269 109.149 325.968 112.633 324.292 115.613Z" fill="black"/>
</svg>
